<svg xmlns="http://www.w3.org/2000/svg" width="24" height="24" viewBox="0 0 24 24" fill="none" class="wallet-icon">
  <style>
    .wallet-icon { stroke: #b87856; }
    @media (prefers-color-scheme: dark) {
      .wallet-icon { stroke: #c88965; }
    }
  </style>
  <path stroke-width="2" stroke-linecap="round" stroke-linejoin="round" d="M19 7V4a1 1 0 0 0-1-1H5a2 2 0 0 0 0 4h15a1 1 0 0 1 1 1v4h-3a2 2 0 0 0 0 4h3a1 1 0 0 0 1-1v-2a1 1 0 0 0-1-1"/>
  <path stroke-width="2" stroke-linecap="round" stroke-linejoin="round" d="M3 5v14a2 2 0 0 0 2 2h15a1 1 0 0 0 1-1v-4"/>
</svg>
